<mxfile host="Electron" modified="2024-09-11T00:36:23.105Z" agent="Mozilla/5.0 (Windows NT 10.0; Win64; x64) AppleWebKit/537.36 (KHTML, like Gecko) draw.io/24.1.0 Chrome/120.0.6099.109 Electron/28.1.0 Safari/537.36" etag="XYNUmZynHnSXiqoYFWin" version="24.1.0" type="device">
  <diagram name="Game States" id="p0VHPiBOrShLLTUktO8f">
    <mxGraphModel dx="1050" dy="621" grid="1" gridSize="10" guides="1" tooltips="1" connect="1" arrows="1" fold="1" page="1" pageScale="1" pageWidth="1100" pageHeight="850" math="0" shadow="0">
      <root>
        <mxCell id="0" />
        <mxCell id="1" parent="0" />
        <mxCell id="4oCEvsuJCNrIM84M5IZS-1" value="Main Menu" style="ellipse;whiteSpace=wrap;html=1;aspect=fixed;" vertex="1" parent="1">
          <mxGeometry x="150" y="170" width="80" height="80" as="geometry" />
        </mxCell>
        <mxCell id="4oCEvsuJCNrIM84M5IZS-8" style="edgeStyle=orthogonalEdgeStyle;rounded=0;orthogonalLoop=1;jettySize=auto;html=1;exitX=1;exitY=0.5;exitDx=0;exitDy=0;entryX=0;entryY=0.5;entryDx=0;entryDy=0;" edge="1" parent="1" source="4oCEvsuJCNrIM84M5IZS-2" target="4oCEvsuJCNrIM84M5IZS-3">
          <mxGeometry relative="1" as="geometry" />
        </mxCell>
        <mxCell id="4oCEvsuJCNrIM84M5IZS-9" value="Lobby Started" style="edgeLabel;html=1;align=center;verticalAlign=middle;resizable=0;points=[];" vertex="1" connectable="0" parent="4oCEvsuJCNrIM84M5IZS-8">
          <mxGeometry x="-0.0367" y="1" relative="1" as="geometry">
            <mxPoint as="offset" />
          </mxGeometry>
        </mxCell>
        <mxCell id="4oCEvsuJCNrIM84M5IZS-2" value="Lobby" style="ellipse;whiteSpace=wrap;html=1;aspect=fixed;" vertex="1" parent="1">
          <mxGeometry x="150" y="345" width="80" height="80" as="geometry" />
        </mxCell>
        <mxCell id="4oCEvsuJCNrIM84M5IZS-10" style="edgeStyle=orthogonalEdgeStyle;rounded=0;orthogonalLoop=1;jettySize=auto;html=1;exitX=1;exitY=0.5;exitDx=0;exitDy=0;entryX=0;entryY=0.5;entryDx=0;entryDy=0;" edge="1" parent="1" source="4oCEvsuJCNrIM84M5IZS-3" target="4oCEvsuJCNrIM84M5IZS-4">
          <mxGeometry relative="1" as="geometry" />
        </mxCell>
        <mxCell id="4oCEvsuJCNrIM84M5IZS-11" value="Minigame decided,&lt;br&gt;Countdown reaches 0" style="edgeLabel;html=1;align=center;verticalAlign=middle;resizable=0;points=[];" vertex="1" connectable="0" parent="4oCEvsuJCNrIM84M5IZS-10">
          <mxGeometry x="-0.1367" y="1" relative="1" as="geometry">
            <mxPoint as="offset" />
          </mxGeometry>
        </mxCell>
        <mxCell id="4oCEvsuJCNrIM84M5IZS-3" value="Game Transition&amp;nbsp;" style="ellipse;whiteSpace=wrap;html=1;aspect=fixed;" vertex="1" parent="1">
          <mxGeometry x="350" y="345" width="80" height="80" as="geometry" />
        </mxCell>
        <mxCell id="4oCEvsuJCNrIM84M5IZS-12" style="edgeStyle=orthogonalEdgeStyle;rounded=0;orthogonalLoop=1;jettySize=auto;html=1;exitX=0.5;exitY=1;exitDx=0;exitDy=0;entryX=0.5;entryY=1;entryDx=0;entryDy=0;" edge="1" parent="1" source="4oCEvsuJCNrIM84M5IZS-4" target="4oCEvsuJCNrIM84M5IZS-3">
          <mxGeometry relative="1" as="geometry">
            <Array as="points">
              <mxPoint x="620" y="460" />
              <mxPoint x="390" y="460" />
            </Array>
          </mxGeometry>
        </mxCell>
        <mxCell id="4oCEvsuJCNrIM84M5IZS-13" value="Minigame winner decided,&lt;br&gt;not enough points to fully win" style="edgeLabel;html=1;align=center;verticalAlign=middle;resizable=0;points=[];" vertex="1" connectable="0" parent="4oCEvsuJCNrIM84M5IZS-12">
          <mxGeometry x="0.035" y="3" relative="1" as="geometry">
            <mxPoint as="offset" />
          </mxGeometry>
        </mxCell>
        <mxCell id="4oCEvsuJCNrIM84M5IZS-14" style="edgeStyle=orthogonalEdgeStyle;rounded=0;orthogonalLoop=1;jettySize=auto;html=1;exitX=0.5;exitY=0;exitDx=0;exitDy=0;entryX=0.5;entryY=0;entryDx=0;entryDy=0;" edge="1" parent="1" source="4oCEvsuJCNrIM84M5IZS-4" target="4oCEvsuJCNrIM84M5IZS-5">
          <mxGeometry relative="1" as="geometry" />
        </mxCell>
        <mxCell id="4oCEvsuJCNrIM84M5IZS-15" value="Minigame winner decided,&lt;br&gt;enough points to fully win" style="edgeLabel;html=1;align=center;verticalAlign=middle;resizable=0;points=[];" vertex="1" connectable="0" parent="4oCEvsuJCNrIM84M5IZS-14">
          <mxGeometry x="-0.06" y="-1" relative="1" as="geometry">
            <mxPoint x="7" as="offset" />
          </mxGeometry>
        </mxCell>
        <mxCell id="4oCEvsuJCNrIM84M5IZS-4" value="Minigame in progress" style="ellipse;whiteSpace=wrap;html=1;aspect=fixed;" vertex="1" parent="1">
          <mxGeometry x="580" y="345" width="80" height="80" as="geometry" />
        </mxCell>
        <mxCell id="4oCEvsuJCNrIM84M5IZS-5" value="Total Winner decided" style="ellipse;whiteSpace=wrap;html=1;aspect=fixed;" vertex="1" parent="1">
          <mxGeometry x="780" y="345" width="80" height="80" as="geometry" />
        </mxCell>
        <mxCell id="4oCEvsuJCNrIM84M5IZS-6" value="" style="endArrow=classic;html=1;rounded=0;exitX=0.5;exitY=1;exitDx=0;exitDy=0;entryX=0.5;entryY=0;entryDx=0;entryDy=0;" edge="1" parent="1" source="4oCEvsuJCNrIM84M5IZS-1" target="4oCEvsuJCNrIM84M5IZS-2">
          <mxGeometry width="50" height="50" relative="1" as="geometry">
            <mxPoint x="510" y="350" as="sourcePoint" />
            <mxPoint x="560" y="300" as="targetPoint" />
          </mxGeometry>
        </mxCell>
        <mxCell id="4oCEvsuJCNrIM84M5IZS-7" value="Host or join lobby" style="edgeLabel;html=1;align=center;verticalAlign=middle;resizable=0;points=[];" vertex="1" connectable="0" parent="4oCEvsuJCNrIM84M5IZS-6">
          <mxGeometry x="-0.0105" y="1" relative="1" as="geometry">
            <mxPoint x="-1" y="-7" as="offset" />
          </mxGeometry>
        </mxCell>
      </root>
    </mxGraphModel>
  </diagram>
</mxfile>
